<svg id="Layer_1" data-name="Layer 1" xmlns="http://www.w3.org/2000/svg" viewBox="0 0 283.46 283.46"><defs><style>.cls-1{fill:#7887c2;}</style></defs><path class="cls-1" d="M192.94,141.39c-1.38,8.68-2.59,18.07-4.46,27.33-1.25,6.19-5.2,12-3.43,18.59,2.12,7.91,10.57,5.87,15.57,9.32,5.73,4,7.31,12.26,2.47,16.62-13.57,12.23-28.52,22.48-45.64,29.19-4.6,1.8-7.52-.4-10.68-4.16-7.76-9.21-8.52-9.37-17-.29-4.93,5.25-9.93,8.26-16.74,6.14q-29.11-9.06-58-18.88c-2.84-1-5.23-3.52-7.58-5.62-3.88-3.45-2-11.64,2.91-13.45,1-.36,2-.77,2.94-1.13,7.4-2.74,18.4,4.35,22.4-6.91,3.16-8.91-4-16.12-6.79-24-1.05-3-2.3-6-3.19-9.09-5-17.43-8.94-19.66-28.16-10.14-7.66,3.79-14.82,8.57-22.31,12.71-5.11,2.82-10.81,3.52-14-2.06-3.11-5.39.4-9.84,4.56-13.82,13.94-13.34,13.93-13.49,2.62-28.8-2.73-3.7-4.83-6.92-1.28-11.25s8-7.6,13.76-5.62c3.94,1.36,7.28,4.4,11,6.47,5.61,3.11,11.19,6.33,17,8.9,4.11,1.8,8.26.4,12.23-1.65,6.75-3.47,9.71-9.8,6.28-15.7C63.14,96.67,57.77,89.89,53.7,82.4c-2.82-5.18-1.29-10.77,3.48-14.26s10.57-2.54,14.6,1.57c6.71,6.85,12.44,14.67,19.15,21.52,5.13,5.25,11.35,5.27,17.35.85,8.13-6,13.38-13.44,14.25-24,.69-8.46,1.16-17.24,6.74-24.42,2.7-3.46,6.13-6.71,10.67-4.1,2.34,1.34,4.73,4.64,4.95,7.24.73,8.49,0,17.11.78,25.59a44.34,44.34,0,0,0,4.39,15.2,13.79,13.79,0,0,0,23.76,1.73c3.57-5.21,5.6-11.54,9.52-16.39A8.68,8.68,0,0,1,195,71.29c2.32,1.64,4.68,4.75,4.95,7.42.43,4.09-.65,8.43-1.6,12.54-1.43,6.15-5.22,12.7-.65,18.37,7,8.66,17.36,12.22,27.77,14.71,2.24.53,5.83-2.34,8-4.43,3.85-3.66,6.61-8.58,10.75-11.78,5-3.9,11.5-7.51,17.69-3.63,7.86,4.93,2.23,10.79-.23,16.52-6.26,14.56-6,15,4.44,24.56,4.72,4.32,10.14,8.08,14,13,4.24,5.38,4.48,11.88,0,17.76a11.39,11.39,0,0,1-17.06,1c-15.72-15.17-37.47-20.53-54-34.25C205,139.77,199.52,138.44,192.94,141.39ZM132.61,112.2c-18.27-3.1-31.35,12.08-47.4,19.56-2.1,1-3.77,5.43-3.66,8.19,1.06,26.16,11.27,47.8,34.39,61.22,27.22,15.78,44.6,6.33,48.4-25.13,1.53-12.66,2.53-25.46,5.27-37.87,2-8.94-1.24-14-7.84-18.84C153.54,113.32,144.37,111.68,132.61,112.2Z"/><path class="cls-1" d="M145.13,164c-.46,1.55-1.24,4.56-2.25,7.5-1.23,3.61-8.33,4.87-10.54,1.67s-5.12-7-5.6-10.76c-1-7.76-5.56-16.69,3.82-22.65,1.32-.84,4.32-.35,5.82.63C144.36,145.62,145.91,153.65,145.13,164Z"/></svg>