<svg id="Layer_1" data-name="Layer 1" xmlns="http://www.w3.org/2000/svg" viewBox="0 0 283.46 283.46"><defs><style>.cls-1{fill:#7887c2;}</style></defs><path class="cls-1" d="M209,152.75c-1.2-14.8-2.54-35.6,1.62-56.34,1.15-5.68,1.29-11.48,5.82-15.88,3.54-3.42,7.69-5.58,12.44-4.12s7.27,5.74,7.1,10.69c-.11,3.38-1.81,6.67-2.24,10.08-3.46,27.48-7.92,54.54-4.08,82.83,3.72,27.36,4,55.55-3.39,82.87-2.68,9.89-11,12.35-18.39,5.66-3.41-3.08-5.64-7.47-9.08-10.5-7.2-6.33-15.16-5.13-21.34,1.37-7.53,7.92-6.58,25.55-21.5,23.95-11.75-1.25-11-16.35-17.05-24.46a105.36,105.36,0,0,0-11.21-13.17c-6.84-6.58-14-6.61-21.85-.71a54,54,0,0,0-5.16,4.64c-5.5,5.38-9.38,14.82-19.49,10-8.88-4.25-6.93-13.92-8.41-21.55-1.32-6.79-1.62-13.81-1.92-20.75a343.66,343.66,0,0,0-17.58-95.41c-4.87-14.48-7.87-29.2-4-44.32.71-2.73,4.5-6.22,7.11-6.45s6.54,2.88,7.66,5.48a112.87,112.87,0,0,1,6,19.92c7.87,35,18.1,69.46,22.18,105.25.89,7.72,5,13.29,13.51,12.7,16.34-1.12,29,6.61,41,16.07,5.8,4.55,11.94,7.07,19,2.73s15.17-4.67,23.39-5.14c17.38-1,18.93-2.64,19.59-20.7C209.44,191.26,209,175,209,152.75Z"/><path class="cls-1" d="M175.44,33c-.93,43.78-8.2,80.36-5.82,117.43a10.63,10.63,0,0,1-.55,3.41c-1.28,4.58-3.33,8.8-8.75,9-5.22.18-8.91-3.33-10.36-7.74-2.14-6.47-4.09-13.33-4.25-20.07a405.39,405.39,0,0,1,1.12-41.54c1.91-24.18,4.56-48.3,7-72.44a44.24,44.24,0,0,1,1.86-10.15C157.65,5.26,161,0,167.57,0c7.52.05,8.84,6.32,8.81,12.18C176.32,21.41,175.56,30.65,175.44,33Z"/><path class="cls-1" d="M100.93,102.05c6.7-22.67,5-47.91,2.86-73.23a50,50,0,0,1,1.94-17c1.19-4.35,4.29-8.26,9.94-7.34,3.81.62,5.88,3.31,6.24,7,2,20.55,7.24,40.64,6.75,61.62-.46,19.43-1.15,39.1,5.77,58.05,2.11,5.77-.92,11.22-6.93,14.06-6.6,3.13-14.93,1.2-18.33-4.58C102.59,129.48,99.73,117.32,100.93,102.05Z"/></svg>