<svg id="Layer_1" data-name="Layer 1" xmlns="http://www.w3.org/2000/svg" viewBox="0 0 283.46 283.46"><defs><style>.cls-1{fill:#7887c2;}</style></defs><path class="cls-1" d="M0,110.72C6.39,83.5,24.93,78.43,44.66,75c29.27-5.15,58.48-10.68,87.82-15.41,32-5.16,63.35-13.13,94.69-21.35a176.51,176.51,0,0,1,42.11-5.26c8.29-.11,13.17,7.26,14.1,15.92.85,7.86-4.86,14.86-14.14,14.8-31.37-.21-61.64,7-92.25,12.16-13.36,2.26-21.07,8.79-22.51,22.36-.28,2.58-1,5.16-.91,7.71.52,13.74-11.68,29-.06,40.66,9.7,9.78,24.77,1.8,37.37,3.15,2.56.28,5.23-.11,7.74.37,6.58,1.26,12.81,3.77,13.67,11.34.9,7.86-4.71,12.24-11.32,13.28-11.47,1.8-23.18,2-34.75,3.18-24,2.49-28.32,6.93-29.28,31.52-.34,9,2,18,1.58,27-.3,6.5-3.83,12.66-11.24,14-7.76,1.35-12.32-3.8-14.27-10.21a57.45,57.45,0,0,1-2.46-19c1-22,2.8-43.85,10.38-64.92,5.72-15.9,9.07-32.46,8.09-49.56-.61-10.76-6.57-17-17.42-16.11C85.92,92.74,60.45,96.62,36,105.3c-4.78,1.7-9.36,4.49-14.26,5.2C15.44,111.41,8.92,110.72,0,110.72Z"/></svg>