<svg id="Layer_1" data-name="Layer 1" xmlns="http://www.w3.org/2000/svg" viewBox="0 0 283.46 283.46"><defs><style>.cls-1{fill:#7887c2;}</style></defs><path class="cls-1" d="M280.1,20.12c3.72,4.55,5.51,8.8-.82,12.91-2.56,1.66-4.52,4.26-6.75,6.43L218.58,61.75c-24.24,3.92-44,17.42-66,29.05,4,9.84,7.45,18.12,10.62,26.52,3.56,9.45,6.83,19,10.37,28.92,8.39-7.16,9.54-16,10.1-25.35a204.68,204.68,0,0,1,3.08-27.21c1.58-8,8.19-10.23,15.66-10.22L203,83q1.14,6.24,2.27,12.5-.84,12.64-1.67,25.31c-1.44,3.07-2.89,6.12-4.34,9.18-3.75,41.37-15.5,81.14-24.47,121.46a24.81,24.81,0,0,1-2.67,6.29c-2.48,4.53-6.65,6.84-11.31,4.84-2.61-1.12-5.69-4.8-5.78-7.42-.22-6.8,1.07-13.65,1.79-20.48,3.13-29.9,3.46-59.78-3.72-89.15A221.32,221.32,0,0,0,140.56,110c-3.59-8.25-11.76-10.85-20.38-7.69-16.11,5.9-32.34,11.58-48,18.5C55.94,128,38.49,127.7,21.64,131c-6,1.17-11.19-1.4-15.88-5.09C0,121.37-1.93,113.15,2.21,107.52,5.56,103,9.21,98.17,13.77,95c11.27-7.9,23-15.16,34.81-22.3,23.15-14,48.33-16.12,73-6.89C137,71.57,150.11,71,164.38,64.37,180,57.08,195.72,50,211.82,43.93,234.37,35.45,257.32,28,280.1,20.12ZM110.37,84.84c-2.49-7-7.63-9.1-13.57-8.82C72.2,77.17,51.06,87.24,32,102.18c-1,.78-1.09,4.53-.15,5.51a7.58,7.58,0,0,0,6.07,2C63,104,88.31,99.07,110.37,84.84Z"/></svg>