<svg id="Layer_1" data-name="Layer 1" xmlns="http://www.w3.org/2000/svg" viewBox="0 0 283.46 283.46"><defs><style>.cls-1{fill:#7887c2;}</style></defs><path class="cls-1" d="M44.81,57.6c20.23,2.89,37,.35,53.12,6.31,10.5,3.88,19.4,7.7,23.69,19.11,7,18.68,23.95,16.36,39.07,16.64,2.48,0,6.11-3.53,7.31-6.26,2.35-5.33,2.86-11.46,5.05-16.88,2.46-6.11,7.6-9.19,14.23-7.41,27.41,7.35,54.83,14.68,82.09,22.57,15.21,4.4,14.86,4.87,13.48,22.52-1.47,18.9-2,37.88-3.83,56.74-1.28,13.26-9.32,18.63-22.35,14.77a297.78,297.78,0,0,0-48.5-10.6c-23.37-2.88-40.55-13-41.44-39.56-.26-8-5.5-9.49-11.59-10.19-18.84-2.16-20.41-1.31-29.55,20.5-3,7.26-7.65,13.49-15.08,12.93-29.46-2.24-59.31,1.39-88.47-6.13-9-2.32-14.95-6.81-17.72-15.4C-3.29,113.72.24,90.38,6.59,67.33c1.66-6,7.43-9.33,13.73-9.62C29.77,57.28,39.24,57.6,44.81,57.6Zm54.24,73.78c0-10,.54-18.24-.11-26.39-1.17-14.63-4.3-18.33-19-20.75-12.64-2.08-25.48-3-38.27-4-13.18-1-19,5.61-17.57,19.53.61,5.84,1.95,11.59,2.76,17.41,1.36,9.67,7.3,14.52,16.55,15.19C61,133.64,78.54,134.78,99.05,131.38Zm151.09,25.79c7.52-7.42,4.22-16.34,5.49-24.22,3.69-23.09,3.43-23-18.95-26.78-11.61-2-23-5.1-34.68-6.73-4.66-.66-9.07,1.89-9.81,7.83-1.79,14.18-.34,27.78,5.65,39.94Z"/><path class="cls-1" d="M147.54,224.43c-11.15-2.86-25.66,1.68-39.47-3.45-10.27-3.81-15.13-9.87-12.94-17.78,2.58-9.29,8.65-14.27,18.17-13.22q28.17,3.11,56.17,7.49c5.74.9,11.28,3.48,16.69,5.8,5.8,2.49,10.15,7,9.12,13.58-1.05,6.82-6.72,9.27-13.08,9.12C171.56,225.73,160.92,225.06,147.54,224.43Z"/></svg>