<svg id="Layer_1" data-name="Layer 1" xmlns="http://www.w3.org/2000/svg" viewBox="0 0 283.46 283.46"><defs><style>.cls-1{fill:#7887c2;}</style></defs><path class="cls-1" d="M19.15,161.55c-3.17,1.58-6.27,3.37-9.55,4.7-3.55,1.44-7.18,1.25-8.89-2.7-.82-1.88-1.06-5.05,0-6.52,3.44-4.79,7.61-9.07,11.49-13.52,2.8.43,4.38-.8,4.73-3.66,6-2.25,11.22-5.26,8-12.84-1.84-4.33-5.76-7.9-7-12.3-.76-2.75.87-7.35,3.05-9.4s6.47-2.94,9.68-2.63C42.58,103.82,49.6,117.76,63,115.44c3.61,1.06,6-.46,7.46-3.69a10.45,10.45,0,0,0,6.18-2.59c9.08-7.47,9.09-9.39.1-18.06-6.15-7.33-13-14.18-18.18-22.17-3.54-5.5-1.28-11.72,4.56-15.4,4.44-2.8,9.51-2.57,13.19,1.07,6.77,6.71,12.5,14.52,19.52,20.92,6.45,5.87,17.07,3,21.62-4.69,4.42-7.46,5.05-15.79,6.51-24a46.3,46.3,0,0,1,6.32-16.34c1.44-2.27,6.53-3.84,9.34-3.16s6.64,4.4,6.9,7.09c.91,9.5-.15,19.18.7,28.7,1.6,18.08,22.05,27.38,37.17,17.13,3.91-2.65,6.92-6.67,10.94-9.09,6.36-3.84,15.42,2,15,9.46a24.77,24.77,0,0,1-1.76,6.94c-2.55,7-4.75,14.07,4.29,18.15,7.82,3.52,13.64-.38,19.13-5.68,3.38-3.26,6.94-6.65,11-8.75,5.44-2.78,11.3,1.63,10.82,5.47-2.1,16.91,6.76,26.21,19.12,35.4,13.15,9.76,13.37,21.17,3.2,33.68-3.85,4.74-13.14,5.32-15.33-.22-7.21-18.21-22.06-24-39.33-26.84-8.77-1.44-13,1.35-15,10.82-2.44,11.68-3.83,23.35-9.41,34.45-8,15.95-7.29,16.6,10.77,22.5,5.18,1.69,8.64,4.33,8.94,9.5s-2.65,10.13-7.14,11.53c-15.17,4.7-27.42,14.62-41.24,21.68-15.7,8-30.89,10.22-48,1.76-12.68-6.29-27.29-8.72-41.09-12.71-8.81-2.55-14.89-7.47-16.19-17.05,8.66-5.81,19.55-.9,31.42-5.81-6.88-6.81-12.28-12.15-17.67-17.5L54.5,154.65c-.38-8.2-.38-8.2-6-5.91-5.82-.35-10.88,1.24-14.85,5.7C27.6,154.39,22.46,156.11,19.15,161.55Zm159.11-7.33c.62-3.68,1.05-6,1.41-8.4,3.57-23.37,3.64-23.51-14.68-33.66-8.37-4.64-17.07-8.69-25.72-12.81-5.89-2.8-13.36-3.13-16.45,2.12-10,17.08-25.43,23.67-43.76,27.26-5.91,1.15-9,8-6.56,14.61,8.3,22.71,19,44,37.76,60.17s41.69,13.34,55.91-6.42C175.77,183.76,178.43,168.76,178.26,154.22Z"/><path class="cls-1" d="M140.7,166.76c-1,1.38-2.62,4.53-5.12,6.49-3.5,2.74-7.25.38-9-2.46a155.15,155.15,0,0,1-11-21.71c-1.95-4.81.82-9.42,4.9-12,4.28-2.72,9-2,12.48,2.08C139.29,146.62,142.72,155.07,140.7,166.76Z"/></svg>