<svg id="Layer_1" data-name="Layer 1" xmlns="http://www.w3.org/2000/svg" viewBox="0 0 283.46 283.46"><defs><style>.cls-1{fill:#7887c2;}</style></defs><path class="cls-1" d="M46.5,233.56c2.8-9.51,8.39-16.87,18.55-18.09,16.35-1.94,19.13-12.32,18.51-26-.55-12.23-.19-24.5-.67-36.74-.25-6.43-8.15-10.56-13.31-7.07-17.69,12-35.11,24.34-52.92,36.11-4.06,2.68-9.18,1.35-12.4-2.39-1.77-2-3.63-6.16-2.72-8,6.29-12.94,10.1-25.23.32-38.61-4.19-5.72-.67-13.65,4.39-16,15-6.86,22.72-17.68,27.59-33.32,3.75-12.06,15.48-14.9,26.23-9.1,6.7,3.61,12.38,9.1,19.12,12.59,3.68,1.91,10,3.48,12.74,1.66,17.57-11.47,39-20.14,39.39-46.3.05-3.07-.54-6.18-.18-9.19,1.93-16,8.62-25.08,16.71-22.73,11,3.19,12.75,12.71,12.69,21.85-.09,15.45,7.49,25.72,19,34.68,14.78,11.51,22.68,16.68,39.87.94,5.53-5.06,12.56-8.67,19.29-12.19,7.14-3.73,16.16,1.5,16.9,9.37.28,3,.66,6.31-.25,9.08-4.88,14.85.5,21.83,15.35,26.75,15.15,5,16.33,15.91,6.09,27.4-8.55,9.6-26.59,12.37-23.14,30.71,2.4,12.7,11.65,21.1,20,30.11,7.25,7.79,5.57,16.85,1.38,25.67-25,8.33-35.32-8.55-44.54-26.51-5.63-11-3.77-31.11-20.34-28.95-12.76,1.67-6.22,20.8-11,31.33-4.95,10.84-10.11,21.9-7.09,34.5l.44-.47c-9.29,3.3-11.84,10-9.56,19.07l.43-.55c-15.48-2.75-30.06,3.28-45.12,4.63-6.49-2.37-13-3.93-19.78-1.07-4.43-.25-5.54,2.43-5.4,6.19a7.2,7.2,0,0,0-3.76,3.57q-8.56.82-17.14,1.69l-19.69-5.46Zm59.31-69.46c1.53,10.55,1.79,21.49,4.89,31.55,4.52,14.69,16.62,21.22,31.32,22.95,12.48,1.47,23.38-4.77,29.87-17,18.32-34.42,14-67.75-6.21-99.53-9.88-15.52-26.64-15.64-38.08-2C112.12,118.7,105.48,140,105.81,164.1Z"/><path class="cls-1" d="M192.07,225.08c8.15,2,14.57-2.42,21.69-5.15,16-6.16,16.69-5.46,24.9,14.22l-.25.27L228,242.67a14.58,14.58,0,0,0-8.13,3.18c-4.62-.07-7.18,2.36-8.16,6.72l-1,.83c-5,.61-7.7,3.57-8.71,8.32l-10,3.35-8.95-3c-.79-3-1.57-6.05-2.35-9.07q1.37-4.92,2.71-9.85l-.43.55c7.52-4.18,10.84-10.47,9.56-19.07Z"/><path class="cls-1" d="M136.34,161c-.2-27.21,5.31-37.25,16.7-34.67,10.15,2.3,12.23,8.35,10.74,30.8-.6,9.06-.46,18.15-9,24.52-4.46,3.33-14.32,2.39-15.35-2.52C137.91,171.74,136.9,164.29,136.34,161Z"/></svg>