<svg id="Layer_1" data-name="Layer 1" xmlns="http://www.w3.org/2000/svg" viewBox="0 0 283.46 283.46"><defs><style>.cls-1{fill:#7887c2;}</style></defs><path class="cls-1" d="M244.2,165c0,24.81-.53,49.63.2,74.41.42,14.13-5.19,20.75-18.69,25.14-19.75,6.42-21.24,7-30.32-10-.55-1-.84-2.21-1.38-3.26-8.29-16.1-17-16.78-27.47-3-6.2,8.16-5.75,17.75-8.21,26.73-1.29,4.68-3.62,8.88-9.52,8.4-5.38-.45-8.57-4.19-9.87-8.85-1.9-6.79-3-13.81-4.25-20.77C132.84,243.65,126.1,237.19,118,232c-9.7-6.22-20.23-4.76-28.68,4-2.39,2.48-3.34,6.31-5.61,9-6.26,7.31-13.48,7-16.57-1-4.64-12.1-9.9-24.28-12.2-36.91-6.12-33.71-10.81-67.67-16-101.54a107.79,107.79,0,0,1-1.58-14.07c-.14-7-1-14.55,6.93-18.5,5.38-2.7,12.27,4.78,14.16,16.42,4,24.48,7.44,49,11.2,73.54,1.62,10.51,3,21.09,5.36,31.46,1.38,6.15,6.1,9.94,12.66,10.53a59.47,59.47,0,0,0,10.59.08c14.77-1.37,28.13,1.8,39.85,11.28,7,5.69,14.86,8.18,22.35,1.29,14.86-13.68,29.25-11.13,45.09-1.26,9.16,5.71,15.64,1.33,16.24-9.81,1.07-20.05,1.19-40.14,2.16-60.19.91-18.87,2.34-37.71,3.7-56.55a43.24,43.24,0,0,1,2-10.4c1.58-4.76,4.66-8.1,10.3-7.07a7.62,7.62,0,0,1,6.11,7.68c.28,28.36.16,56.73.16,85.09Z"/><path class="cls-1" d="M115.75,60.8c0,11.8,0,23.61,0,35.42s.67,23.48,7.15,34.17a25.86,25.86,0,0,1,3.25,13.35,10.92,10.92,0,0,1-8.16,10.4c-3,.78-7.31.46-9.82-1.2-7-4.62-12.87-10.59-13.69-19.61-1-10.57-2.35-21.18-2.19-31.75.4-27.14,1.56-54.28,2.43-81.42.07-2.36,0-4.74.33-7.07.76-6,2.22-11.71,9.4-13,6-1,10.89,5,11.62,14.63.44,5.88.45,11.8.49,17.7.08,9.45,0,18.9,0,28.35Z"/><path class="cls-1" d="M150.2,101.06c1-29.56,5.07-58.79,9.47-88a7,7,0,0,1,7.48-6c3.07.33,6.26,2.57,8.68,4.76,1.55,1.39,2.31,4.17,2.53,6.42.46,4.67,1.27,9.61.28,14.07-6.54,29.16-5,58.78-5.4,88.28-.13,9.46.51,18.94-4.33,27.64-2.33,4.19-4.81,9-10.1,8.5-5-.46-8.35-4.8-8.47-9.76C150,131.71,150.2,116.38,150.2,101.06Z"/></svg>