<svg id="Layer_1" data-name="Layer 1" xmlns="http://www.w3.org/2000/svg" viewBox="0 0 283.46 283.46"><defs><style>.cls-1{fill:#7887c2;}</style></defs><path class="cls-1" d="M141,146.66c-.75,22.8-1.57,39-1.72,55.21-.11,11.72-2,22.79-8.55,32.7-2.9,4.38-6.77,8.09-12.42,6.8s-8.43-6.11-7.57-11.47c5.22-32.63,1.86-66.12,10-98.46,1.23-4.86,1.37-10.08,1.39-15.14,0-12.27-7.21-18.71-19.55-16.79Q68.71,104.81,35,111c-10.38,1.87-20.44,1.66-29.55-3.74-2.77-1.64-5.5-6-5.41-9.06s3-7.74,5.8-9a50.59,50.59,0,0,1,18.11-4.53c37-1.72,72.17-12.35,108.11-20,48.12-10.18,96.46-23,146.57-22.8,7,7.68,5.24,16.64,2.29,24.94-3.13,8.82-11.12,13.54-19.07,17.78-8.37,4.47-16.71,7.62-23-3-3.65-6.16-8.73-8.88-15.76-7.81-18.83,2.87-37.7,5.55-56.47,8.8-11.25,2-18.07,8.58-18.47,20.66-.17,5.09-.84,10.16-.83,15.23,0,13.26,5.36,18.34,18.77,17.32,13.94-1.06,27.82-2.76,41.73-4.09,7.05-.68,12.43,1.94,15,8.75,2.48,6.46-2.64,12.69-13,15-12.35,2.75-25.43,3.25-37.15,7.57C159.32,167.91,154.53,158.23,141,146.66Z"/></svg>