<svg id="Layer_1" data-name="Layer 1" xmlns="http://www.w3.org/2000/svg" viewBox="0 0 283.46 283.46"><defs><style>.cls-1{fill:#7887c2;}</style></defs><path class="cls-1" d="M146.73,121.74a14.9,14.9,0,0,0-12.43,8.08c-3.41,6.39-6.53,12.94-9.87,19.38-4.86,9.37-11.8,13-22.89,11A492.16,492.16,0,0,1,38.38,144c-15.92-5.11-24-15.3-25.69-31.35-.44-4.12-1.15-8.21-1.43-12.34A47.11,47.11,0,0,0,4,77.38c-10-16.1-.13-30.4,19-30.1,8.24.12,16.79,1.21,24.68-.51,23.77-5.19,47.24,1.95,71,.7,13.5-.7,25.36,7.84,33.82,19.28,1.11,7.64-2.11,13.27-7.45,18.59-5.53,5.52-3.13,10.88,2.46,15,2.4,1.78,5.37,2.82,7.67,4.7,5.12,4.16,4.05,8.58-.52,12.3C152.29,119.24,149.37,120.31,146.73,121.74Zm-21-38.95c-19.91-2.94-36.11-6.07-52.47-7.48-10.14-.87-20.61.16-30.75,1.63-12.62,1.83-15,6.07-15.36,18.78-.44,15.5,6.31,26.09,20.75,30.69,15.69,5,31.69,9.17,47.76,12.79,12.48,2.8,20.92-2.8,20.82-15.6C116.34,109.92,119.23,97.31,125.69,82.79Z"/><path class="cls-1" d="M172.25,66.86C178.71,59,186.9,55.73,197,57.33,217.43,60.57,237.83,64,258.29,67c13.14,1.94,21,10.25,22.81,22.17,4.76,31.21,3.23,62-13,90.3-4.69,8.19-11.11,9.92-17.36,3.1-7.67-8.37-16.46-11.54-27.2-12.54-12.3-1.14-24.5-3.37-36.75-5-17.34-2.34-19.42-4.47-22.17-23.26-.3-2-.5-4.1-.75-6.16C165.86,112.56,164,89.09,172.25,66.86Zm60.52,81.68c29.79,1.39,36.54-5.74,33.73-40.81-.17-2-.39-4.1-.73-6.13-1.36-8.08-6.22-12.85-14.19-14.18-17.27-2.88-34.55-5.7-51.87-8.25C191.64,78,186,81.53,182.41,89c-5.65,11.73-5,24.16-4.31,36.45s7,18.86,19.14,20.43C207.45,147.23,217.8,147.48,232.77,148.54Z"/><path class="cls-1" d="M157.5,238.61c-20.68-1.91-39.15-3.43-57.57-5.45a24.14,24.14,0,0,1-11.31-4.32c-2-1.49-3.28-5.48-3-8.12s2.55-5.66,4.84-7.11a15.3,15.3,0,0,1,8.79-1.81q35.44,2.31,70.85,5.22a13.81,13.81,0,0,1,8.13,3.78,11.16,11.16,0,0,1,3,8c-.3,2.58-2.58,6.51-4.69,7C169.67,237.54,162.46,238,157.5,238.61Z"/></svg>