<svg id="Layer_1" data-name="Layer 1" xmlns="http://www.w3.org/2000/svg" viewBox="0 0 283.46 283.46"><defs><style>.cls-1{fill:#7887c2;}</style></defs><path class="cls-1" d="M56.91,102.74c-13.76-.65-27.57-.83-41.28-2.08C5,99.68-1.41,92.75.27,85.28c1.8-8,7.82-10.82,15.28-10.78,11,0,22.09,1,33.12.72,22-.48,44-.18,65.31-8.48,8.67-3.38,19-2.35,28.41-4,28.52-5.08,57-10.2,84.07-21.31,14-5.73,28.59-10.83,44.19-5.1,6.89,2.54,12.92,6.64,12.81,14.35-.1,7.55-5.35,12.52-13,13.66-6.81,1-13.84.78-20.56,2.14C217.41,73,185,79.85,152.64,86.72c-10.74,2.28-16.88,9.59-18.14,20-5.24,43.4-19.53,49.78,33.89,46.65a85.51,85.51,0,0,1,16.5,1.14c5.67.77,11.49,3.14,11.31,9.57-.16,5.93-5.65,9.92-10.91,11.14-16.1,3.74-32.48,6.26-48.64,9.75-18.12,3.91-23,9.71-23.11,27.87-.06,6.83,1.74,13.67,2,20.52.2,5.83-3.17,10.22-7.45,14.08-4,3.64-12.39,2.68-13.94-2.18C87.23,223.72,87.46,202,92.4,180c4.55-20.17,9.27-40.35,12.64-60.74,2.31-14-3.91-19.37-19.15-19-5.51.15-11,.89-16.52,1.15-4.13.19-8.28,0-12.42,0C56.94,101.91,56.93,102.32,56.91,102.74Z"/></svg>