<svg id="Layer_1" data-name="Layer 1" xmlns="http://www.w3.org/2000/svg" viewBox="0 0 283.46 283.46"><defs><style>.cls-1{fill:#7887c2;}</style></defs><path class="cls-1" d="M44.43,39.63q22.93,1.88,45.88,3.77c16.46,1.37,30.16,5.72,31.89,25.82,1.1,12.89,11.63,14.18,21.61,14.85,9.39.62,14.82-4.46,19.43-12.64,13.15-23.35,13.52-23.09,37.88-18.11,15,3.07,30,6.51,45.2,8.83,15.78,2.42,24.72,12.17,29.88,26a116.5,116.5,0,0,1,6.27,24.28c4.21,29.93-4.48,39.67-35.34,42-20.85,1.6-41.65,3.93-62.42,6.38-11.16,1.31-18.81-2.08-23.07-13a263.35,263.35,0,0,0-12-26.66c-4.4-8.35-19.9-7.9-24.69.33a27.26,27.26,0,0,0-1.68,3.83c-4,10-3.42,22.66-16.09,27.68-10.88,4.31-18.42-4.31-27.35-7.21C61,139.75,41.72,138,22.12,137.12c-9.43-.44-16.88-7.51-15.68-16.37C9.51,98,3.09,76.57.17,54.61c-1.27-9.52,4.81-15.43,15-15.3,9.74.12,19.47.91,29.2,1.41C44.38,40.35,44.4,40,44.43,39.63ZM67.68,115c16,.89,20.65-2.49,22.86-16.72,3.25-20.93-1.47-27.61-22.36-31A142.1,142.1,0,0,0,51.68,66c-15-.64-20.41,4.77-19.48,19.18,1.34,20.75,6.76,26.56,27.22,29.1C62.16,114.57,64.92,114.77,67.68,115Zm154.64,10.18c2.79-.39,8.33-.83,13.73-2s10.62-3.28,12.08-9.67c1.68-7.41-.14-14.79-5.95-18.73-15.35-10.4-33-13.22-51.25-11.41-1.77.17-4.43,3.77-4.56,5.91C185.36,105,204,124.75,222.32,125.21Z"/><path class="cls-1" d="M131.19,244.16c-6.43-1.92-15.65-4.31-24.61-7.44-7-2.46-11.93-8-10.32-15.51,1.82-8.44,8.17-15.42,16.81-15.82,14-.64,26.85,4.62,37.37,14,4,3.6,6.64,9,4.43,14.79-2.1,5.46-6.81,8.26-12.54,9.09C139.64,243.68,136.9,243.73,131.19,244.16Z"/></svg>