<svg id="Layer_1" data-name="Layer 1" xmlns="http://www.w3.org/2000/svg" viewBox="0 0 283.46 283.46"><defs><style>.cls-1{fill:#7887c2;}</style></defs><path class="cls-1" d="M94,205.64c2.16-15.69,4-30.59,6.36-45.4,1.21-7.63-.83-13.48-6.64-18.5-5.26-4.55-10.46-6.28-17.35-3.39-13.84,5.82-27.9,11.15-41.94,16.48-9.74,3.69-19.6,7.18-30.28,6.28a5.58,5.58,0,0,1-3.84-2.85,5.52,5.52,0,0,1,.44-4.74,27,27,0,0,1,6.12-6,191.37,191.37,0,0,1,39.53-21.44c8.11-3.26,16.67-5.59,25.37-3.22,6.66,1.81,12.63.46,18.59-1.88,14-5.49,27.88-11.15,41.79-16.79,37-15,75-27,114.57-33.18,11.36-1.77,22.87-2.59,34.33-3.68a3.13,3.13,0,0,1,2.36,1.9A2.92,2.92,0,0,1,282,71.7a56.14,56.14,0,0,1-9.86,3.12C243.68,80,215.6,86.74,187.8,94.7c-19.46,5.57-38.21,13.12-57.14,20.24-18.13,6.83-18.85,21.21-17.24,35.14.32,2.79,2.09,5.39,2.83,8.17,4.85,18.1,3,35.49-5.87,52.05a21.25,21.25,0,0,1-1.94,2.87,7.33,7.33,0,0,1-12.71-1.66A51.09,51.09,0,0,1,94,205.64ZM26.38,145.35c12.78-1.49,24.77-5.45,37.71-13.42C47.47,129.58,37.48,138.84,26.38,145.35Zm76.44,53.52c7.86-8.59,7.66-19,5.5-33.13C106.11,179.07,104.47,189,102.82,198.87Zm3.46-68.46c-.26-2.24-.75-4.52-3.89-3.78-2.18.51-4.45,1.28-5.34,3.64-.71,1.89,2.36,5.54,5,6.11S106.28,134.57,106.28,130.41Z"/></svg>