<svg id="Layer_1" data-name="Layer 1" xmlns="http://www.w3.org/2000/svg" viewBox="0 0 283.46 283.46"><defs><style>.cls-1{fill:#7887c2;}</style></defs><path class="cls-1" d="M190.8,224.55c4.26.06,8.52-.08,12.76.22,5.66.39,10.59,2.46,11.75,8.68,1.05,5.62-4.07,13.92-9.54,15-14.56,2.92-29.4,8.09-43.8,7.17-15.19-1-28.31,9.41-43.92,4.29-13-4.29-27.09-5.45-40.61-8.37q-17.2-3.72-34.2-8.34c-5.91-1.6-8.8-6.41-7.68-12.18a10,10,0,0,1,11.82-8.31c11.57,1.76,22.95,4.7,34.51,6.5,2.66.42,7.08-1,8.26-3s.69-6.85-1-8.89C74,198.74,66.26,177.21,65,151.85c-19.43,3.86-32.82,13.47-45.08,25.63-7.83,7.76-16.07,8.86-18.66,3.64-3.64-7.36,1.34-12,5.72-16.6,3.69-3.83,7.92-7.14,11.79-10.81,7.19-6.82,9.18-14.16,1.91-22.29-4.15-4.64-4.38-9.65-.29-14.24s9.42-4.65,14.64-2.53c5.9,2.39,11.37,6,17.39,7.88,6.87,2.18,18.43-4.45,20.93-11.39,1.55-4.3.2-8.33-2.54-11.87-5.21-6.71-10.88-13.1-15.48-20.2-2.39-3.69-1-8.27,2.21-11.64,3.5-3.65,7.83-3.82,11.44-.88,6.58,5.37,12.63,11.38,19,17.07,6.8,6.1,14.23,9.34,23.28,4.89C121.51,83.45,128.7,76.24,128,63.82c-.31-5.32-1.48-10.6-1.6-15.91a71.47,71.47,0,0,1,1-15.82c1.09-5.39,4.05-10.21,10.53-10,4.64.16,7.84,3.47,9.2,7.67a164.65,164.65,0,0,1,4.76,18.57c2.82,14.19,11.71,24.84,20.49,35.48,4.85,5.88,10.23,5.7,16.33,0,3.09-2.89,5.47-6.55,8.49-9.53,4.56-4.52,9.59-3.77,14.34-.29,4,3,4.39,7.36,2.53,11.43-2.63,5.78-6.45,11-9,16.85-2.29,5.24-1.5,10.74,3.35,14.33,3.75,2.77,8,1.74,11.71-1,5.15-3.73,10-8,15.53-11,3.91-2.17,8.85-1.3,11.13,2.87,1.24,2.26.12,5.9-.24,8.88-.1.89-1.16,1.74-1.92,2.46-4.62,4.35-10.69,8-10.91,15.09-.26,8.51,6.72,12.95,12.21,17.68,9.67,8.36,19.87,16.11,29.88,24.08,5.39,4.29,8.28,9.8,7.48,16.69-.61,5.29-1.65,10.89-6.84,13.73-6.15,3.37-9.25-1.44-13.11-5.27C249.79,187.34,236,174,221.94,161c-7.14-6.6-12.78-4.59-16.35,5a16.86,16.86,0,0,0-1,3c-2.93,18.06-11.89,33.71-19.83,49.76-2.07,1.94-4.17,4.32-1.47,6.79C185.62,227.75,188.47,226.43,190.8,224.55Zm-46.2-8c11.34-.17,18.92-3.13,24-12.64,11-20.67,18.15-42.68,18.47-66.41a15.13,15.13,0,0,0-4.56-11.39C174.3,117.92,166.78,109,158.4,101c-9.86-9.47-15.34-9.14-28.65-3.42-18.57,8-24.2,28.83-40.36,39.05-1.42.9-1.7,3.78-2.27,5.81C77,179,106.52,217.16,144.6,216.6Z"/><path class="cls-1" d="M135.74,150.72c.87-4.4,1.51-10.65,3.56-16.4.77-2.16,4.67-3.74,7.43-4.43,1.41-.35,4.17,1.4,5.09,2.94,6.47,10.74,5.17,28.25-2.8,38-1.13,1.38-3.54,2.06-5.47,2.38-3.82.64-6-2.23-6.49-5.16C136.14,163,136.21,157.73,135.74,150.72Z"/></svg>