<svg id="Layer_1" data-name="Layer 1" xmlns="http://www.w3.org/2000/svg" viewBox="0 0 283.46 283.46"><defs><style>.cls-1{fill:#7887c2;}</style></defs><path class="cls-1" d="M282.35,118.17c.35,7.48,1.62,15.06.89,22.44-2.91,29.57-10.27,35.45-40.26,32.7-26-2.37-52-5.06-77.93-7.74-5.56-.57-9.63-3.82-9.61-9.53,0-8.72,1.91-17.4-1.63-26-3.37-8.19-9.73-11.21-17.8-10.86-7.11.32-11.23,5.06-12.75,11.69-2.39,10.4,2.82,24-11.1,29.52-10.71,4.27-19-4.52-28.33-7.34-19.55-5.9-39.73-5.1-59.73-6.47-17.92-1.23-21.72-4.76-23-22.62A299,299,0,0,1,.3,86.35c1.39-26.8,12.13-35.76,38.22-33.53,17.48,1.5,35,3.41,52.48,3.76,14.37.29,24.32,4.62,27.27,19.82,2,10.43,9.1,14,19.11,14s15-4.39,19.16-14c6.3-14.51,9.06-14.55,22.94-12.15Q218.39,71,257.35,77.44c21.2,3.53,23,5.35,24.1,25.7.27,5,0,10,0,15.06Zm-98.62,29.44c19.18-3.29,39-4.26,58.72.67,7.12,1.78,12.17-2,12.76-9.7a178.78,178.78,0,0,0,.13-18.81c-.48-16.46-2.28-18-20-20.17-11.18-1.37-22.33-3.11-33.41-5.14C183,91,179.27,93.22,180.67,113,181.45,124,176.3,135.59,183.73,147.61ZM24.67,77.72c2.15,13.59-6.32,28.26,2.13,39.49,7,9.32,21.36,3.1,32.28,5.05,2.47.44,4.94.87,7.41,1.27,28.08,4.53,28.08,4.53,26.87-24.81-.1-2.51.49-5.18-.21-7.48-1.07-3.54-2.91-7.35-7.27-7.4C66.06,83.62,47.33,72.29,24.67,77.72Z"/><path class="cls-1" d="M157.34,230.58c-19,2.15-36.51-5-54.14-11.21-5.83-2.06-11.38-6.17-9.39-13.83,1.48-5.69,6.77-6.76,11.88-7.18a45.85,45.85,0,0,1,7.5.14c21.1,1.73,42.2,3.44,63.28,5.36,4.95.45,10.14.92,14.64,2.79,3,1.23,6.23,4.66,6.94,7.68,1.27,5.35-2.47,9.2-7.14,11.64C180.43,231.44,169,230.09,157.34,230.58Z"/></svg>