<svg id="Layer_1" data-name="Layer 1" xmlns="http://www.w3.org/2000/svg" viewBox="0 0 283.46 283.46"><defs><style>.cls-1{fill:#7887c2;}</style></defs><path class="cls-1" d="M247.41,175.5c-5.92,29.78.49,52.58.13,75.52-.07,4.5,1.38,9,1.11,13.52-.37,6.21-8.86,12.16-15.14,11.18-8.18-1.28-15.65-4.1-20.7-11.11-4-5.59-7.3-11.77-11.71-17s-10.39-4.64-15.37-.92a33.05,33.05,0,0,0-9,10.19c-3.31,6-5.27,12.72-8.29,18.89-2.08,4.26-5.75,7.54-10.66,7.7-6.2.19-11-2.88-13.61-8.65-2.35-5.24-3.71-11-6.55-15.91-13.55-23.43-30.05-27.21-54.27-12.83-2,1.16-3.58,3-5.61,3.92-6.44,3.09-11.57.59-13.89-5.42C60.12,235,56.51,225.11,54.53,215c-6.42-32.67-12.1-65.47-18-98.24-.81-4.5-1.75-9.07-1.75-13.6,0-4.84,2.32-9.2,7.27-10.46,5.21-1.32,9.39,1.91,10.48,6.53,4.48,19,8.23,38.21,12.43,57.29,2.92,13.26,2.47,27.76,14.14,38,1,.9-1.58,5.3-1.4,8,.44,6.3,3.38,10.84,10.44,11.17a36,36,0,0,0,6.89-.09c19.35-2.81,36.53,2.34,51.62,14.39,8.45,6.75,16.64,7.74,24.43-.27,11.35-11.66,25.32-15.09,40.91-14.3,8.68.43,12.81-4.88,13-12.49.85-31,1.17-62.07,1.7-93.11.14-8-2-16.18,2.25-23.67,1.07-1.88,3.23-4.61,4.69-4.49,3.06.25,7.17,1.29,8.74,3.5,4.84,6.82,5,15.09,5,23.2Z"/><path class="cls-1" d="M177.65,69.2c0,18.39.07,36.78,0,55.17-.06,12.79-2,25.29-9.11,36.16-1.46,2.24-6.08,3.93-8.76,3.4s-5.24-3.85-7-6.51c-1.13-1.71-1.21-4.49-.93-6.68,5.12-40,4.28-80.26,6-120.41.4-9.27.34-18.66,7.17-25.89A15.27,15.27,0,0,1,173.78,0c4.49-.44,5.34,4,5.35,7.21.06,13.76-.38,27.52-.57,41.28-.09,6.89,0,13.79,0,20.68Z"/><path class="cls-1" d="M106.48,84c0-19-.08-35.12,0-51.24,0-5,2.35-9.5,7.29-10.36,7-1.24,10.34,3.78,11.41,9.88,1.39,7.91,4.27,16.33,2.84,23.83-5.95,31.26,1.47,61.88,2.78,92.76.14,3.43,1.09,7.17,0,10.2-1,2.88-3.74,6.27-6.45,7.12s-7.2-.1-9.51-2c-11.12-9-11.37-22.25-11.21-34.84C103.92,113.25,105.62,97.18,106.48,84Z"/></svg>