<svg id="Layer_1" data-name="Layer 1" xmlns="http://www.w3.org/2000/svg" viewBox="0 0 283.46 283.46"><defs><style>.cls-1{fill:#7887c2;}</style></defs><path class="cls-1" d="M107.55,165.56c-24.16,7.8-48.3,3.84-72.69.81C17,164.15,4.5,157.09,0,138.88A10.39,10.39,0,0,0,0,128c4.68-19,3.78-38.43,4.23-57.76A184.52,184.52,0,0,1,5.75,47.8c1-6.8,8.56-11.28,14.32-7.87,14.54,8.6,30.6,9.33,46.63,11.12,20.29,2.26,40.59,4.65,60.74,7.86,22.28,3.55,26.17,8.52,27.6,31.63.27,4.29,0,8.64.67,12.87,1.15,7.59,6.72,10.63,13.58,11.28,6.64.62,9.27-4,10.58-9.6.49-2.09.66-4.26,1.2-6.34C186,79.51,196.31,71.08,215.1,74c19.09,2.93,37.94,7.69,56.68,12.49,8,2,12.15,8.39,11.64,17.13-.69,11.78-1.13,23.58-1.94,35.35-1.77,25.46-22.14,41-46.82,34-14.41-4.12-28.18-10.13-43.34-11.85-8.2-.93-11.74-8.11-16.12-14.46-8.41-12.19-15.43-13-25.24-1.84a63.35,63.35,0,0,1-23.18,16.71C119.8,160.13,113.05,159.92,107.55,165.56ZM73.48,146v1.11c12.83-.56,25.69-.87,38.5-1.77,10.47-.74,14.42-4.95,16.3-16.26,1.75-10.54,3.41-21.11,4.9-31.69,1.39-9.89-1.42-14.59-10.77-16.15C97,77,71.58,73.17,46.12,69.36a60.52,60.52,0,0,0-12.84-.25c-4.48.3-8.2,2.3-9.55,7.06-4.7,16.6-7.68,33.47-6.67,50.8.69,11.74,5.73,17.8,17.85,18.8C47.69,146.82,60.62,146,73.48,146Zm162.57.84v.23c3.2.15,6.41.47,9.61.43,12.75-.16,16.46-4,17.26-17.64,1.19-20.17-1-23.17-21.6-28.47-8.27-2.13-16.57-4.34-25-5.74-11.29-1.88-15.45,1.14-18.44,12-7.4,26.95-2.32,34.69,25.34,38.32C227.47,146.56,231.78,146.58,236.05,146.85Z"/><path class="cls-1" d="M127.4,208.53c14.71,1.92,32.9,4,51,6.77,9.77,1.51,18.6,5.59,24.65,14,2.88,4,2.06,8-.46,11.87-2,3.07-5.34,4.24-8.45,3.05-22.58-8.63-46.29-9.53-70-10.68a46.11,46.11,0,0,1-9.6-1.28c-7.16-1.92-15.43-2.9-17.06-12.18-1.1-6.24,8.06-11.34,20-11.57C119.59,208.49,121.74,208.53,127.4,208.53Z"/></svg>