<svg id="Layer_1" data-name="Layer 1" xmlns="http://www.w3.org/2000/svg" viewBox="0 0 283.46 283.46"><defs><style>.cls-1{fill:#7887c2;}</style></defs><path class="cls-1" d="M113.89,98c4.86.83,9.66,1.93,14.53,2.35,2.24.19,6.17-.34,6.66-1.6,4.51-11.37,13.67-8.12,22.5-8.95,8.65-.82,17.2-4.94,25.35-8.58a313.46,313.46,0,0,1,72.18-22.39c4-.73,8-1.74,11.94-2.77,5.69-1.48,14.4-7.51,16.24-.58,1.68,6.34-9.31,6.89-15.17,8.83-30.26,10-60.52,20-89.59,33.2-3.71,1.68-7.54,3.13-11.2,4.91-5.63,2.73-8.56,7.29-8.8,13.61-.66,17-5.14,33.6-.81,51.05,2.69,10.82,1.66,22.82.77,34.18-.64,8-3.62,15.85-6,23.62a8.63,8.63,0,0,1-9.36,6.35,10,10,0,0,1-8.85-7.42c-1.13-3.88-2.21-8-2.16-12a75.23,75.23,0,0,1,2-17c3.55-14.42,3.84-29.17,4.78-43.82A56.83,56.83,0,0,0,137,134.14c-2.36-9.51-7.69-12.24-16.3-8.13q-21,10-41.52,21.14c-17.37,9.35-35.68,16.16-54.57,21.62-6.57,1.9-12.79,2-19-1.27C.15,164.58-1.73,157.92,1.79,153a18.78,18.78,0,0,1,3-3.85C32.73,125.73,64,108.64,99.31,99.32A42.29,42.29,0,0,1,106.54,98C109,97.82,111.43,98,113.89,98ZM113,111.43c-5.19-3.64-10.84-1.86-16-.37-22.73,6.55-43.41,17.38-62.5,31.27-1.87,1.35-3.79,3.85-2.13,5.68,1.21,1.33,4.65,1.74,6.62,1.1a337.91,337.91,0,0,0,70.34-31.89C111.3,116,113.23,114.41,113,111.43Z"/></svg>