<svg id="Layer_1" data-name="Layer 1" xmlns="http://www.w3.org/2000/svg" viewBox="0 0 283.46 283.46"><defs><style>.cls-1{fill:#7887c2;}</style></defs><path class="cls-1" d="M99.61,198.34c2.49-12.25,5-24.5,7.48-36.74,1.71-8.23,1.13-15.94-4.67-22.61-2.84-3.26-6.4-5.07-10.65-4.09A129.73,129.73,0,0,0,76,139.53c-13.14,4.85-26.09,10.2-39.27,14.95-8,2.87-16.23,5.07-24.4,7.41a14.86,14.86,0,0,1-8.86.19c-3-1-4.63-5-2.45-7.22a82.3,82.3,0,0,1,20.48-15c12.43-6.4,24.91-12.78,37.73-18.35,9-3.9,18.92-3.5,28.06-1,7.85,2.12,14.32.51,21.74-1.56,25.6-7.12,49.63-18.6,75-26.21,29.84-8.93,60.07-15.36,91.38-15.38a48,48,0,0,1,7.32.89c.31,0,.75.76.72,1.14-.06.9-.07,2.23-.62,2.59a10,10,0,0,1-4.14,1.55c-8.43,1.09-16.85,2.38-25.31,3-33.34,2.32-64.82,12.14-96,23.36-9.41,3.38-18.77,6.93-28.22,10.23-4.3,1.5-6.49,4.3-6.91,8.77-1.06,11.45-2.31,22.88-3.3,34.33s-4.45,22.54-7.35,33.65a23.78,23.78,0,0,1-3.36,6.67c-1.07,1.62-2.7,3.52-4.87,2.18a13.14,13.14,0,0,1-3.73-4.4C99.24,200.55,99.61,199.33,99.61,198.34ZM24.19,147.4c4.12,2,7.34.83,10.65-.17,14.22-4.32,27.26-11.91,42-14.91,1.79-.36,3.41-1.95,4.91-3.21a3.07,3.07,0,0,0,.93-2.53,2.79,2.79,0,0,0-1.89-1.7c-5.49-.91-10.8-.07-16.13,1.48C49.73,130.7,37.25,139.57,24.19,147.4ZM110.76,126c-2.35.69-4.7,1.63-4.48,4.71.2,2.69,1.93,4.94,4.52,4.79,3-.17,3.44-3.15,3.43-5.62C114.22,127.79,113.34,126.05,110.76,126Z"/></svg>