<svg id="Layer_1" data-name="Layer 1" xmlns="http://www.w3.org/2000/svg" viewBox="0 0 283.46 283.46"><defs><style>.cls-1{fill:#7887c2;}</style></defs><path class="cls-1" d="M141.72,186.28c-19.76,0-35.84-16.3-35.84-36.32s16.08-36.33,35.84-36.33,35.84,16.3,35.84,36.33S161.48,186.28,141.72,186.28Zm0-58.27c-11.83,0-21.45,9.85-21.45,22a21.46,21.46,0,1,0,42.9,0C163.17,137.86,153.55,128,141.72,128Z"/><path class="cls-1" d="M141.72,107.15c-9.4,0-40.06-1.18-40.06-16.35s30.66-16.34,40.06-16.34,40.07,1.18,40.07,16.34S151.12,107.15,141.72,107.15ZM122.17,90.8a88.29,88.29,0,0,0,19.55,2,88.22,88.22,0,0,0,19.55-2,88.22,88.22,0,0,0-19.55-2A88.29,88.29,0,0,0,122.17,90.8Z"/><path class="cls-1" d="M178.48,209l2.4-53.54c1.47-33.36,36.42-61.5,87-70,6.7-1.14,13.21,2.05,15.09,7.41,1.57,4.48-.39,9.16-4.88,11.65L257.4,116c4.86,1.13,8.43,4.45,9.13,8.82.63,3.94-1.33,8.79-7.1,10.88l-17.18,7.61a10,10,0,0,1,3,5.19c.95,4.35-1.24,8.58-5.57,10.78L236.2,161c-18.27,9.12-33.15,20.12-44.23,32.69ZM246.8,105.45c-30.7,10.35-50.61,29.29-51.56,50.66l-.66,14.95a168.65,168.65,0,0,1,29.54-20,10,10,0,0,1-3.64-6.31c-.54-3.88,1.45-8.64,7.1-10.7l10.09-4.47a8,8,0,0,1-4.56-5.34C231,115.81,244.56,106.86,246.8,105.45Zm-14,34.29ZM271.06,92Z"/><path class="cls-1" d="M105,209,91.48,193.71c-11.08-12.57-26-23.57-44.23-32.7l-3.43-1.71c-4.36-2.22-6.55-6.45-5.61-10.8a10.06,10.06,0,0,1,3-5.19L24,135.7c-5.76-2.09-7.73-6.93-7.09-10.87.7-4.38,4.27-7.7,9.13-8.83L5.41,104.52C.93,102-1,97.35.54,92.87c1.88-5.36,8.37-8.56,15.09-7.41,50.54,8.51,85.48,36.65,87,70ZM59.34,151.08a169.06,169.06,0,0,1,29.54,20l-.67-15c-.94-21.37-20.84-40.31-51.55-50.66,2.17,1.36,15.84,10.39,13.67,18.83a7.81,7.81,0,0,1-4.56,5.31l10.11,4.48c5.65,2.06,7.64,6.82,7.1,10.69A10,10,0,0,1,59.34,151.08Zm-8.71-11.35ZM12.39,91.94h0Z"/></svg>