<svg id="Layer_1" data-name="Layer 1" xmlns="http://www.w3.org/2000/svg" viewBox="0 0 283.46 283.46"><defs><style>.cls-1{fill:#7887c2;}</style></defs><path class="cls-1" d="M274.68,62a46.73,46.73,0,0,1,6.21.86,4,4,0,0,1,2.45,2.37c.57,2.08-.92,3.41-2.75,3.84-3,.7-6,1-9.08,1.55-27.38,4.56-54.81,8.52-81.88,15.14-17.46,4.26-34.52,9.44-51.54,15-6.49,2.11-9.69,6-10.38,13.43-2.15,23.37-5.33,46.64-8,70-1,8.58-1.63,17.21-2.57,25.8a52.15,52.15,0,0,1-1.73,9,3.7,3.7,0,0,1-4.38,2.54c-1.64-.38-3.63-1.24-4.51-2.54-2.21-3.27-1.76-7.13-.89-10.75,2.2-9.18,1.17-18.44,1.18-27.7,0-13.72-6.15-25.14-13.48-35.88-3-4.42-8-7.62-12.44-10.92-5.38-4-11.27-4.25-17.55-1.65-10.85,4.5-21.91,8.48-32.75,13a56.88,56.88,0,0,1-25.41,4A5.14,5.14,0,0,1,0,144.48a7,7,0,0,1,1.75-5,22.47,22.47,0,0,1,6-4.35c16.92-9.09,33.95-17.93,54-17.16,7.71.3,14.45-3,21.27-5.81q18.87-7.77,37.56-16c17.59-7.73,36.1-12.7,54.64-17.14,25.19-6,50.23-13.1,76.23-15.17C258.82,63.33,266.19,62.69,274.68,62ZM112,154.84c5.75-14.14,5.77-27.84,5.15-41.6-.13-2.85-4.19-4.74-7.13-3.43-6.11,2.74-12.18,5.56-18.18,8.51-2.61,1.28-5.88,2.1-6.08,6.23C90.46,129,95,133.85,100.2,138,105.53,142.22,105.8,150,112,154.84Z"/></svg>