<svg id="Layer_1" data-name="Layer 1" xmlns="http://www.w3.org/2000/svg" viewBox="0 0 283.46 283.46"><defs><style>.cls-1{fill:#7887c2;}</style></defs><path class="cls-1" d="M106.61,216.13c2.87-22.47,6.6-52.26,10.52-82,1.09-8.33,3.41-16.55,4-24.9C122.21,92.08,118.17,82,96,87.74,68.11,95,39.45,99.36,11,104.49A9.33,9.33,0,0,1,.17,97.09c-1-5.28,2.91-8.7,7.28-11.17a11.52,11.52,0,0,1,3.34-1.36C79.27,71.27,145.35,47.08,215,39.3c17.88-2,34.85-10.45,53.31-7.57,4.52.7,9.36,2.15,13,4.71,3.08,2.16,2.54,7.39-.18,9.42a31.91,31.91,0,0,1-13,5.31c-23.67,4.3-47.43,8.13-71.14,12.2-7.11,1.22-14.26,2.37-21.25,4.09-27.49,6.77-28.28,7.87-32,35.26-2.45,17.87-5,35.72-7.94,53.53-3.66,22.6-6.85,45.18-5.07,68.21.64,8.39.35,17.21-6.12,23.73-2.33,2.35-6.57,4.57-9.46,4.07s-6.44-4.3-7-7.14C106.93,238.09,107.25,230.78,106.61,216.13Z"/><path class="cls-1" d="M198.43,149.47a83.76,83.76,0,0,1,9.37.51c4.95.73,9.64,3,9.33,8.61-.18,3.06-2.62,6.93-5.23,8.69-3.84,2.6-8.62,4.1-13.21,5.28-11.63,3-23.32,5.81-35.1,8.12-6.31,1.23-12-.62-14.51-7.39s1.22-14.41,9.14-17a188.22,188.22,0,0,1,24.43-5.8C187.34,149.61,192.23,149.82,198.43,149.47Z"/></svg>