<svg id="Layer_1" data-name="Layer 1" xmlns="http://www.w3.org/2000/svg" viewBox="0 0 283.46 283.46"><defs><style>.cls-1{fill:#7887c2;}</style></defs><path class="cls-1" d="M243,22.27c7.7,0,15.45-.56,23.08.13,11.26,1,18.62,8.86,17.19,17.48C281.62,49.88,276.23,57,266,59c-4.38.85-9.57,1-13.61-.51-17.13-6.58-33.79-.79-50.28,1.78C178.92,63.88,172.85,71,170.28,93A203,203,0,0,0,169,116.11c0,20.89,4.07,25.24,27,29,4.55.74,9.26.44,13.84,1.05,6.53.88,11.63,4,12.71,11s-3.49,11.45-8.89,14.76C211,173.49,207.8,175.1,205,175c-37.13-1.71-46.9,21.53-49.35,52.57-.71,9-3.55,18.14-7,26.59-1.35,3.35-6.62,6.27-10.59,7.11-4.74,1-8.63-2.64-10.15-7.32-1.41-4.37-3.4-9.23-2.71-13.47,4.93-30.4.49-61.55,8.29-91.79,3.43-13.31,4.19-27.43,5.08-41.25,2-30.85-.71-32.66-29.42-25.9Q66.44,91.55,23.34,100c-5.68,1.12-12.12-.29-17.92-1.7-2.27-.54-4.8-4.1-5.3-6.66A10.6,10.6,0,0,1,2.53,83.4c7.93-8.05,18.6-11.32,29.21-12.83C85.45,63,135.62,41.88,188.22,30.08,206.36,26,224.32,21.79,243,22.27Z"/></svg>