<svg id="Layer_1" data-name="Layer 1" xmlns="http://www.w3.org/2000/svg" viewBox="0 0 283.46 283.46"><defs><style>.cls-1{fill:#7887c2;}</style></defs><path class="cls-1" d="M229.5,191.65c-1.24-8.91-2.78-21-4.65-33-3.42-22,1-43.22,6.18-64.33a25.38,25.38,0,0,1,5.88-10.52c3.63-4,8.61-7.64,14-4.08,2.85,1.86,5.52,6.19,5.66,9.52.28,6.68-1,13.47-2.05,20.14-5.08,31-6.83,61.93-1.31,93.09,2.37,13.42,2.56,26.94-1.06,40.37-6.18,23-11.58,26.67-33.2,16.62-15.81-7.35-28.85-4.9-41.6,4.67-5.36,4-9.39,9.75-14.45,14.22-8.69,7.68-16,6.82-24-2.87-6-7.29-11.09-15.45-17.47-22.41-11.41-12.47-21.58-12.43-34.43.53-5.56,5.61-8.56,15.07-18.55,12.85-11.83-2.63-11.62-13.42-13.16-22.7-3.77-22.75-8.39-45.38-11.19-68.24a267.07,267.07,0,0,0-14-59.23,65.08,65.08,0,0,1-3.36-19.68A8,8,0,0,1,34,88.15c2.43-.24,5.69.35,7.41,1.88,10.56,9.35,16,21.75,18.91,35.18,5.39,25.15,10.33,50.4,15.32,75.64,1.75,8.82,5.59,16.55,15.72,14,19.09-4.79,34.7.39,48.53,13.3,10.35,9.67,21.42,9.26,33.73,3.76,11.2-5,23.15-6.67,35.66-6.71,16-.06,19.5-4.12,20.16-18.11C229.67,203.05,229.5,199,229.5,191.65Z"/><path class="cls-1" d="M189.36,89.45c.88,14.47,2.09,30.68,2.74,46.91a128.6,128.6,0,0,1-.84,24.2c-1,6.6-3.73,13.59-11.81,14.46-8.74.93-12.1-6.18-13-12.7-2.19-16.08-4.11-32.33-4.22-48.52-.21-31.18.78-62.36,1.61-93.53a52.26,52.26,0,0,1,3.22-15.52c.75-2.13,4-4.85,6-4.75,3.73.2,8.21,1.31,10.86,3.72,5.37,4.86,5.44,12,5.45,18.86C189.39,44.28,189.36,66,189.36,89.45Z"/><path class="cls-1" d="M133.92,109.31c0,15,.59,29.93-.28,44.83-.38,6.56-3.24,13.62-12.06,13.66A11.51,11.51,0,0,1,110,158.22c-3.24-18.61-8.53-37.59-7.35-56.07,1.57-24.66,1.91-48.64-4-72.66-.94-3.79-1-8.43.34-12,1.28-3.3,4.69-7.29,7.79-7.93s8.81,1.84,9.89,4.4c7.86,18.78,15.79,37.69,15.86,58.61,0,12.24,0,24.47,0,36.7Z"/></svg>