<svg id="Layer_1" data-name="Layer 1" xmlns="http://www.w3.org/2000/svg" viewBox="0 0 283.46 283.46"><defs><style>.cls-1{fill:#7887c2;}</style></defs><path class="cls-1" d="M77.65,198.75c-2.43-10.17-4.16-20.33-7.36-30C66,155.78,54.91,151,42.42,157c-7.79,3.74-14.35,10-22,14a16.08,16.08,0,0,1-12.19.39C2.55,169,0,163.18,0,157.05a33.69,33.69,0,0,1,2.29-12.74c2.27-5.31,6.86-9.74,8.58-15.14,5.72-18,16.49-25.3,36-23.24,12.27,1.29,15.44-5.33,11-16.59-1.6-4-4.79-7.36-6.61-11.32-2.69-5.84-1.84-11.42,3.26-15.74,4.63-3.93,9.94-6.22,16.09-4.13,2.73.93,5.21,2.57,7.78,3.93,25.91,13.8,27.17,13.48,39-10.13,8.84-17.59,14.73-22.48,23.84-19.3C154,37.11,152.2,48.22,152.7,58.33a67.37,67.37,0,0,0,1.69,13c3.52,14.06,13.78,16.68,24.34,6.29,3.1-3,5.42-7,8.8-9.63,7.51-5.86,18.85-1.92,20.59,7.3,1.06,5.65.13,11.65.66,17.44.78,8.59,5,13.48,14.34,11.14,4.24-1.07,8.27-2.92,12.46-4.19,6.49-2,14.21.77,14.56,5.88,1.3,19,14.93,27.24,27.82,36.9,6.91,5.17,6.88,12.54,2.32,19.45-5.23,7.92-12.34,13.08-22.12,8.58-12-5.49-23.26-12.38-35.26-17.76-14.11-6.33-20.16-3-26.13,12.66-5.88,15.5-3.53,19.67,13.18,23,4.27.85,9.3.18,12.73,2.28,3.25,2,6.45,6.55,6.74,10.21s-2,9.32-4.94,11.16c-17.25,10.69-34.66,21.25-52.74,30.41-18.57,9.4-37.93,12.4-58.89,5.62-19.42-6.29-39.78-9.63-59.63-14.68-8-2-12.48-7.8-11.32-16.15.85-6.16,5.2-10.39,11.44-11.74C60.27,204,68,207.55,77.65,198.75ZM116.71,94.61c-3.13,2.2-7,4.31-10.14,7.21-34.37,31.77-12.08,83.56,23.24,97.23,15.78,6.11,25.53,3.22,31.27-12.29,19.27-52.16,14.5-64.26-35.42-89.32C123.13,96.17,120.21,95.69,116.71,94.61Z"/><path class="cls-1" d="M151.44,152.07c-1.06,2.92-1.88,7.11-4,10.51-2.54,4.09-7.06,4.2-10.87,1.9-7.86-4.75-10.44-13.06-12.21-21.26s3-13.63,10.41-15.69c8.74-2.44,12.69,3.49,14.63,10.83C150.47,142.41,150.68,146.69,151.44,152.07Z"/></svg>